Tue Oct 15 13:51:17 COT 2013
Parameter 1: /var/www/pyl5/ImageProcessing/Execution/vocabulary.xml
Parameter 2: /var/www/pyl5/www/output/images/444e89b7ff1d1d4529c83977ded6648c/script.xml
Parameter 3: /var/www/pyl5/www/output/images/444e89b7ff1d1d4529c83977ded6648c/score.xml
Parameter 4: /var/www/pyl5/ImageProcessing
Parameter 5: /var/www/pyl5/www/output/images/444e89b7ff1d1d4529c83977ded6648c/SoundFilm.log
Parameter 6: 
Parameter 7: 

ffmpeg version N-42091-gf7cba73 Copyright (c) 2000-2012 the FFmpeg developers
  built on Jul  1 2012 05:10:32 with gcc 4.6.3
  configuration: --prefix=/root/ffmpeg-static/32bit --arch=x86_32 --extra-cflags='-m32 -I/root/ffmpeg-static/32bit/include -static' --extra-ldflags='-m32 -L/root/ffmpeg-static/32bit/lib -static' --extra-libs='-lxml2 -lexpat -lfreetype' --enable-static --disable-shared --disable-ffserver --disable-doc --enable-bzlib --enable-zlib --enable-postproc --enable-runtime-cpudetect --enable-libx264 --enable-gpl --enable-libtheora --enable-libvorbis --enable-libmp3lame --enable-gray --enable-libass --enable-libfreetype --enable-libopenjpeg --enable-libspeex --enable-libvo-aacenc --enable-libvo-amrwbenc --enable-version3 --enable-libvpx
  libavutil      51. 63.100 / 51. 63.100
  libavcodec     54. 31.100 / 54. 31.100
  libavformat    54. 14.100 / 54. 14.100
  libavdevice    54.  0.100 / 54.  0.100
  libavfilter     3.  0.100 /  3.  0.100
  libswscale      2.  1.100 /  2.  1.100
  libswresample   0. 15.100 /  0. 15.100
  libpostproc    52.  0.100 / 52.  0.100
Guessed Channel Layout for  Input Stream #0.0 : stereo
Input #0, wav, from '/var/www/pyl5/www/output/images/444e89b7ff1d1d4529c83977ded6648c/tmpgarage.wav':
  Duration: 00:00:03.91, bitrate: 1411 kb/s
    Stream #0:0: Audio: pcm_s16le ([1][0][0][0] / 0x0001), 44100 Hz, stereo, s16, 1411 kb/s
[graph 0 input from stream 0:0 @ 0xa52bb60] tb:1/44100 samplefmt:s16 samplerate:44100 chlayout:0x3
Output #0, mp3, to '/var/www/pyl5/www/output/images/444e89b7ff1d1d4529c83977ded6648c/walk001.wav.mp3':
  Metadata:
    TSSE            : Lavf54.14.100
    Stream #0:0: Audio: mp3, 44100 Hz, stereo, s16, 128 kb/s
Stream mapping:
  Stream #0:0 -> #0:0 (pcm_s16le -> libmp3lame)
Press [q] to stop, [?] for help
size=       7kB time=00:00:00.36 bitrate= 146.6kbits/s    size=      14kB time=00:00:00.83 bitrate= 136.1kbits/s    size=      22kB time=00:00:01.35 bitrate= 133.0kbits/s    size=      28kB time=00:00:01.72 bitrate= 132.0kbits/s    size=      38kB time=00:00:02.40 bitrate= 130.8kbits/s    size=      44kB time=00:00:02.77 bitrate= 130.5kbits/s    size=      51kB time=00:00:03.21 bitrate= 130.1kbits/s    size=      62kB time=00:00:03.91 bitrate= 129.7kbits/s    
video:0kB audio:62kB subtitle:0 global headers:0kB muxing overhead 0.716198%
ffmpeg version N-42091-gf7cba73 Copyright (c) 2000-2012 the FFmpeg developers
  built on Jul  1 2012 05:10:32 with gcc 4.6.3
  configuration: --prefix=/root/ffmpeg-static/32bit --arch=x86_32 --extra-cflags='-m32 -I/root/ffmpeg-static/32bit/include -static' --extra-ldflags='-m32 -L/root/ffmpeg-static/32bit/lib -static' --extra-libs='-lxml2 -lexpat -lfreetype' --enable-static --disable-shared --disable-ffserver --disable-doc --enable-bzlib --enable-zlib --enable-postproc --enable-runtime-cpudetect --enable-libx264 --enable-gpl --enable-libtheora --enable-libvorbis --enable-libmp3lame --enable-gray --enable-libass --enable-libfreetype --enable-libopenjpeg --enable-libspeex --enable-libvo-aacenc --enable-libvo-amrwbenc --enable-version3 --enable-libvpx
  libavutil      51. 63.100 / 51. 63.100
  libavcodec     54. 31.100 / 54. 31.100
  libavformat    54. 14.100 / 54. 14.100
  libavdevice    54.  0.100 / 54.  0.100
  libavfilter     3.  0.100 /  3.  0.100
  libswscale      2.  1.100 /  2.  1.100
  libswresample   0. 15.100 /  0. 15.100
  libpostproc    52.  0.100 / 52.  0.100
Guessed Channel Layout for  Input Stream #0.0 : stereo
Input #0, wav, from '/var/www/pyl5/www/output/images/444e89b7ff1d1d4529c83977ded6648c/tmpgarage.wav':
  Duration: 00:00:03.91, bitrate: 1411 kb/s
    Stream #0:0: Audio: pcm_s16le ([1][0][0][0] / 0x0001), 44100 Hz, stereo, s16, 1411 kb/s
[graph 0 input from stream 0:0 @ 0x9e5eb60] tb:1/44100 samplefmt:s16 samplerate:44100 chlayout:0x3
Output #0, mp3, to '/var/www/pyl5/www/output/images/444e89b7ff1d1d4529c83977ded6648c/walk001.wav.mp3':
  Metadata:
    TSSE            : Lavf54.14.100
    Stream #0:0: Audio: mp3, 44100 Hz, stereo, s16, 128 kb/s
Stream mapping:
  Stream #0:0 -> #0:0 (pcm_s16le -> libmp3lame)
Press [q] to stop, [?] for help
size=       5kB time=00:00:00.28 bitrate= 151.6kbits/s    size=      10kB time=00:00:00.57 bitrate= 139.9kbits/s    size=      15kB time=00:00:00.88 bitrate= 135.7kbits/s    size=      25kB time=00:00:01.54 bitrate= 132.4kbits/s    size=      33kB time=00:00:02.03 bitrate= 131.3kbits/s    size=      35kB time=00:00:02.19 bitrate= 131.1kbits/s    size=      37kB time=00:00:02.29 bitrate= 131.0kbits/s    size=      43kB time=00:00:02.71 bitrate= 130.5kbits/s    size=      48kB time=00:00:03.03 bitrate= 130.3kbits/s    size=      57kB time=00:00:03.57 bitrate= 129.9kbits/s    size=      60kB time=00:00:03.78 bitrate= 129.8kbits/s    size=      62kB time=00:00:03.91 bitrate= 129.7kbits/s    
video:0kB audio:62kB subtitle:0 global headers:0kB muxing overhead 0.716198%
ffmpeg version N-42091-gf7cba73 Copyright (c) 2000-2012 the FFmpeg developers
  built on Jul  1 2012 05:10:32 with gcc 4.6.3
  configuration: --prefix=/root/ffmpeg-static/32bit --arch=x86_32 --extra-cflags='-m32 -I/root/ffmpeg-static/32bit/include -static' --extra-ldflags='-m32 -L/root/ffmpeg-static/32bit/lib -static' --extra-libs='-lxml2 -lexpat -lfreetype' --enable-static --disable-shared --disable-ffserver --disable-doc --enable-bzlib --enable-zlib --enable-postproc --enable-runtime-cpudetect --enable-libx264 --enable-gpl --enable-libtheora --enable-libvorbis --enable-libmp3lame --enable-gray --enable-libass --enable-libfreetype --enable-libopenjpeg --enable-libspeex --enable-libvo-aacenc --enable-libvo-amrwbenc --enable-version3 --enable-libvpx
  libavutil      51. 63.100 / 51. 63.100
  libavcodec     54. 31.100 / 54. 31.100
  libavformat    54. 14.100 / 54. 14.100
  libavdevice    54.  0.100 / 54.  0.100
  libavfilter     3.  0.100 /  3.  0.100
  libswscale      2.  1.100 /  2.  1.100
  libswresample   0. 15.100 /  0. 15.100
  libpostproc    52.  0.100 / 52.  0.100
Guessed Channel Layout for  Input Stream #0.0 : stereo
Input #0, wav, from '/var/www/pyl5/www/output/images/444e89b7ff1d1d4529c83977ded6648c/tmpgarage.wav':
  Duration: 00:00:03.91, bitrate: 1411 kb/s
    Stream #0:0: Audio: pcm_s16le ([1][0][0][0] / 0x0001), 44100 Hz, stereo, s16, 1411 kb/s
[graph 0 input from stream 0:0 @ 0x9d47b60] tb:1/44100 samplefmt:s16 samplerate:44100 chlayout:0x3
Output #0, mp3, to '/var/www/pyl5/www/output/images/444e89b7ff1d1d4529c83977ded6648c/walk001.wav.mp3':
  Metadata:
    TSSE            : Lavf54.14.100
    Stream #0:0: Audio: mp3, 44100 Hz, stereo, s16, 128 kb/s
Stream mapping:
  Stream #0:0 -> #0:0 (pcm_s16le -> libmp3lame)
Press [q] to stop, [?] for help
size=       5kB time=00:00:00.23 bitrate= 156.9kbits/s    size=       9kB time=00:00:00.49 bitrate= 141.7kbits/s    size=      12kB time=00:00:00.73 bitrate= 137.3kbits/s    size=      17kB time=00:00:01.01 bitrate= 134.7kbits/s    size=      27kB time=00:00:01.64 bitrate= 132.1kbits/s    size=      34kB time=00:00:02.09 bitrate= 131.3kbits/s    size=      37kB time=00:00:02.32 bitrate= 130.9kbits/s    size=      42kB time=00:00:02.61 bitrate= 130.6kbits/s    size=      47kB time=00:00:02.92 bitrate= 130.3kbits/s    size=      47kB time=00:00:02.95 bitrate= 130.3kbits/s    size=      58kB time=00:00:03.65 bitrate= 129.9kbits/s    size=      62kB time=00:00:03.91 bitrate= 129.7kbits/s    
video:0kB audio:62kB subtitle:0 global headers:0kB muxing overhead 0.716198%
Hello, SBI!
temporal = /var/www/pyl5/www/output/images/444e89b7ff1d1d4529c83977ded6648c/
el script es valido
el vocabulario es valido
listo para los objetos
el objeto que da es Rabbit
el objeto que da es Rabbit
listo para los actores
el actor que da es Chinchilla
el actor que da es Apple
el actor que da es Squirrel
el actor que da es Bird
el actor que da es Rabbit
el objeto que da es Rabbit
es fondo o voz
es el por defecto
el sonido por defecto del actor es RabbitDefault
hola
you can do it
you can do it
you can do it
temporal string = /var/www/pyl5/www/output/images/444e89b7ff1d1d4529c83977ded6648c/
copiando /var/www/pyl5/ImageProcessing/SoundFilm/walk001.wav en /var/www/pyl5/www/output/images/444e89b7ff1d1d4529c83977ded6648c/tmp_1.wav
copiando /var/www/pyl5/ImageProcessing/SoundFilm/walk001.wav en /var/www/pyl5/www/output/images/444e89b7ff1d1d4529c83977ded6648c/tmp_2.wav
copiando /var/www/pyl5/ImageProcessing/SoundFilm/walk001.wav en /var/www/pyl5/www/output/images/444e89b7ff1d1d4529c83977ded6648c/tmp_3.wav
copiando /var/www/pyl5/ImageProcessing/SoundFilm/walk001.wav en /var/www/pyl5/www/output/images/444e89b7ff1d1d4529c83977ded6648c/tmp_4.wav
copiando /var/www/pyl5/ImageProcessing/SoundFilm/walk001.wav en /var/www/pyl5/www/output/images/444e89b7ff1d1d4529c83977ded6648c/tmp_5.wav
tu
el actor es ::Rabbit::
la animacion del actor es ::-default-::
la de la acciones ::WALK::
el actor es ::Rabbit::
la animacion del actor es ::-default-::
la de la acciones ::JUMP::
el actor que da es Bird
el actor que da es Bird
el actor que da es FlyingSquirrel
el actor que da es Chinchilla
el actor que da es Butterfly
el actor que da es Rabbit
el objeto que da es Rabbit
es fondo o voz
es el por defecto
el sonido por defecto del actor es RabbitDefault
hola
you can do it
you can do it
you can do it
temporal string = /var/www/pyl5/www/output/images/444e89b7ff1d1d4529c83977ded6648c/
copiando /var/www/pyl5/ImageProcessing/SoundFilm/walk001.wav en /var/www/pyl5/www/output/images/444e89b7ff1d1d4529c83977ded6648c/tmp_1.wav
copiando /var/www/pyl5/ImageProcessing/SoundFilm/walk001.wav en /var/www/pyl5/www/output/images/444e89b7ff1d1d4529c83977ded6648c/tmp_2.wav
copiando /var/www/pyl5/ImageProcessing/SoundFilm/walk001.wav en /var/www/pyl5/www/output/images/444e89b7ff1d1d4529c83977ded6648c/tmp_3.wav
copiando /var/www/pyl5/ImageProcessing/SoundFilm/walk001.wav en /var/www/pyl5/www/output/images/444e89b7ff1d1d4529c83977ded6648c/tmp_4.wav
copiando /var/www/pyl5/ImageProcessing/SoundFilm/walk001.wav en /var/www/pyl5/www/output/images/444e89b7ff1d1d4529c83977ded6648c/tmp_5.wav
tu
el actor es ::Rabbit::
la animacion del actor es ::-default-::
la de la acciones ::WALK::
el actor es ::Rabbit::
la animacion del actor es ::-default-::
la de la acciones ::JUMP::
el actor que da es Squirrel
el actor que da es Rabbit
el objeto que da es Rabbit
es fondo o voz
es el por defecto
el sonido por defecto del actor es RabbitDefault
hola
you can do it
you can do it
you can do it
temporal string = /var/www/pyl5/www/output/images/444e89b7ff1d1d4529c83977ded6648c/
copiando /var/www/pyl5/ImageProcessing/SoundFilm/walk001.wav en /var/www/pyl5/www/output/images/444e89b7ff1d1d4529c83977ded6648c/tmp_1.wav
copiando /var/www/pyl5/ImageProcessing/SoundFilm/walk001.wav en /var/www/pyl5/www/output/images/444e89b7ff1d1d4529c83977ded6648c/tmp_2.wav
copiando /var/www/pyl5/ImageProcessing/SoundFilm/walk001.wav en /var/www/pyl5/www/output/images/444e89b7ff1d1d4529c83977ded6648c/tmp_3.wav
copiando /var/www/pyl5/ImageProcessing/SoundFilm/walk001.wav en /var/www/pyl5/www/output/images/444e89b7ff1d1d4529c83977ded6648c/tmp_4.wav
copiando /var/www/pyl5/ImageProcessing/SoundFilm/walk001.wav en /var/www/pyl5/www/output/images/444e89b7ff1d1d4529c83977ded6648c/tmp_5.wav
tu
el actor es ::Rabbit::
la animacion del actor es ::-default-::
la de la acciones ::WALK::
el actor es ::Rabbit::
la animacion del actor es ::-default-::
la de la acciones ::JUMP::
el objeto que da es Squirrel
el objeto que da es Squirrel
listo para los actores
el actor que da es Chinchilla
el actor que da es Apple
el actor que da esffmpeg version N-42091-gf7cba73 Copyright (c) 2000-2012 the FFmpeg developers
  built on Jul  1 2012 05:10:32 with gcc 4.6.3
  configuration: --prefix=/root/ffmpeg-static/32bit --arch=x86_32 --extra-cflags='-m32 -I/root/ffmpeg-static/32bit/include -static' --extra-ldflags='-m32 -L/root/ffmpeg-static/32bit/lib -static' --extra-libs='-lxml2 -lexpat -lfreetype' --enable-static --disable-shared --disable-ffserver --disable-doc --enable-bzlib --enable-zlib --enable-postproc --enable-runtime-cpudetect --enable-libx264 --enable-gpl --enable-libtheora --enable-libvorbis --enable-libmp3lame --enable-gray --enable-libass --enable-libfreetype --enable-libopenjpeg --enable-libspeex --enable-libvo-aacenc --enable-libvo-amrwbenc --enable-version3 --enable-libvpx
  libavutil      51. 63.100 / 51. 63.100
  libavcodec     54. 31.100 / 54. 31.100
  libavformat    54. 14.100 / 54. 14.100
  libavdevice    54.  0.100 / 54.  0.100
  libavfilter     3.  0.100 /  3.  0.100
  libswscale      2.  1.100 /  2.  1.100
  libswresample   0. 15.100 /  0. 15.100
  libpostproc    52.  0.100 / 52.  0.100
[wav @ 0x964d660] max_analyze_duration 5000000 reached at 5015510
Guessed Channel Layout for  Input Stream #0.0 : stereo
Input #0, wav, from '/var/www/pyl5/www/output/images/444e89b7ff1d1d4529c83977ded6648c/tmpgarage.wav':
  Duration: 00:00:06.90, bitrate: 1411 kb/s
    Stream #0:0: Audio: pcm_s16le ([1][0][0][0] / 0x0001), 44100 Hz, stereo, s16, 1411 kb/s
[graph 0 input from stream 0:0 @ 0x96b5420] tb:1/44100 samplefmt:s16 samplerate:44100 chlayout:0x3
Output #0, mp3, to '/var/www/pyl5/www/output/images/444e89b7ff1d1d4529c83977ded6648c/squirrel.wav.mp3':
  Metadata:
    TSSE            : Lavf54.14.100
    Stream #0:0: Audio: mp3, 44100 Hz, stereo, s16, 128 kb/s
Stream mapping:
  Stream #0:0 -> #0:0 (pcm_s16le -> libmp3lame)
Press [q] to stop, [?] for help
size=      11kB time=00:00:00.68 bitrate= 138.0kbits/s    size=      29kB time=00:00:01.82 bitrate= 131.7kbits/s    size=      61kB time=00:00:03.84 bitrate= 129.8kbits/s    size=      84kB time=00:00:05.33 bitrate= 129.3kbits/s    size=      90kB time=00:00:05.69 bitrate= 129.2kbits/s    size=     109kB time=00:00:06.92 bitrate= 129.0kbits/s    
video:0kB audio:109kB subtitle:0 global headers:0kB muxing overhead 0.406559%
ffmpeg version N-42091-gf7cba73 Copyright (c) 2000-2012 the FFmpeg developers
  built on Jul  1 2012 05:10:32 with gcc 4.6.3
  configuration: --prefix=/root/ffmpeg-static/32bit --arch=x86_32 --extra-cflags='-m32 -I/root/ffmpeg-static/32bit/include -static' --extra-ldflags='-m32 -L/root/ffmpeg-static/32bit/lib -static' --extra-libs='-lxml2 -lexpat -lfreetype' --enable-static --disable-shared --disable-ffserver --disable-doc --enable-bzlib --enable-zlib --enable-postproc --enable-runtime-cpudetect --enable-libx264 --enable-gpl --enable-libtheora --enable-libvorbis --enable-libmp3lame --enable-gray --enable-libass --enable-libfreetype --enable-libopenjpeg --enable-libspeex --enable-libvo-aacenc --enable-libvo-amrwbenc --enable-version3 --enable-libvpx
  libavutil      51. 63.100 / 51. 63.100
  libavcodec     54. 31.100 / 54. 31.100
  libavformat    54. 14.100 / 54. 14.100
  libavdevice    54.  0.100 / 54.  0.100
  libavfilter     3.  0.100 /  3.  0.100
  libswscale      2.  1.100 /  2.  1.100
  libswresample   0. 15.100 /  0. 15.100
  libpostproc    52.  0.100 / 52.  0.100
[wav @ 0xb1c6660] max_analyze_duration 5000000 reached at 5015510
Guessed Channel Layout for  Input Stream #0.0 : stereo
Input #0, wav, from '/var/www/pyl5/www/output/images/444e89b7ff1d1d4529c83977ded6648c/tmpgarage.wav':
  Duration: 00:00:06.90, bitrate: 1411 kb/s
    Stream #0:0: Audio: pcm_s16le ([1][0][0][0] / 0x0001), 44100 Hz, stereo, s16, 1411 kb/s
[graph 0 input from stream 0:0 @ 0xb22e420] tb:1/44100 samplefmt:s16 samplerate:44100 chlayout:0x3
Output #0, mp3, to '/var/www/pyl5/www/output/images/444e89b7ff1d1d4529c83977ded6648c/squirrel.wav.mp3':
  Metadata:
    TSSE            : Lavf54.14.100
    Stream #0:0: Audio: mp3, 44100 Hz, stereo, s16, 128 kb/s
Stream mapping:
  Stream #0:0 -> #0:0 (pcm_s16le -> libmp3lame)
Press [q] to stop, [?] for help
size=       5kB time=00:00:00.26 bitrate= 154.0kbits/s    size=      17kB time=00:00:01.01 bitrate= 134.7kbits/s    size=      28kB time=00:00:01.75 bitrate= 131.9kbits/s    size=      33kB time=00:00:02.03 bitrate= 131.3kbits/s    size=      35kB time=00:00:02.19 bitrate= 131.1kbits/s    size=      37kB time=00:00:02.29 bitrate= 131.0kbits/s    size=      38kB time=00:00:02.37 bitrate= 130.9kbits/s    size=      40kB time=00:00:02.50 bitrate= 130.7kbits/s    size=      40kB time=00:00:02.53 bitrate= 130.7kbits/s    size=      43kB time=00:00:02.69 bitrate= 130.5kbits/s    size=      47kB time=00:00:02.97 bitrate= 130.3kbits/s    size=      53kB time=00:00:03.31 bitrate= 130.1kbits/s    size=      61kB time=00:00:03.84 bitrate= 129.8kbits/s    size=      72kB time=00:00:04.57 bitrate= 129.5kbits/s    size=      82kB time=00:00:05.22 bitrate= 129.3kbits/s    size=      88kB time=00:00:05.59 bitrate= 129.2kbits/s    size=      89kB time=00:00:05.61 bitrate= 129.2kbits/s    size=      93kB time=00:00:05.90 bitrate= 129.2kbits/s    size=     100kB time=00:00:06.37 bitrate= 129.1kbits/s    size=     102kB time=00:00:06.47 bitrate= 129.1kbits/s    size=     109kB time=00:00:06.92 bitrate= 129.0kbits/s    
video:0kB audio:109kB subtitle:0 global headers:0kB muxing overhead 0.406559%
ffmpeg version N-42091-gf7cba73 Copyright (c) 2000-2012 the FFmpeg developers
  built on Jul  1 2012 05:10:32 with gcc 4.6.3
  configuration: --prefix=/root/ffmpeg-static/32bit --arch=x86_32 --extra-cflags='-m32 -I/root/ffmpeg-static/32bit/include -static' --extra-ldflags='-m32 -L/root/ffmpeg-static/32bit/lib -static' --extra-libs='-lxml2 -lexpat -lfreetype' --enable-static --disable-shared --disable-ffserver --disable-doc --enable-bzlib --enable-zlib --enable-postproc --enable-runtime-cpudetect --enable-libx264 --enable-gpl --enable-libtheora --enable-libvorbis --enable-libmp3lame --enable-gray --enable-libass --enable-libfreetype --enable-libopenjpeg --enable-libspeex --enable-libvo-aacenc --enable-libvo-amrwbenc --enable-version3 --enable-libvpx
  libavutil      51. 63.100 / 51. 63.100
  libavcodec     54. 31.100 / 54. 31.100
  libavformat    54. 14.100 / 54. 14.100
  libavdevice    54.  0.100 / 54.  0.100
  libavfilter     3.  0.100 /  3.  0.100
  libswscale      2.  1.100 /  2.  1.100
  libswresample   0. 15.100 /  0. 15.100
  libpostproc    52.  0.100 / 52.  0.100
[wav @ 0x9feb660] max_analyze_duration 5000000 reached at 5015510
Guessed Channel Layout for  Input Stream #0.0 : mono
Input #0, wav, from '/var/www/pyl5/www/output/images/444e89b7ff1d1d4529c83977ded6648c/tmpgarage.wav':
  Duration: 00:00:07.35, bitrate: 705 kb/s
    Stream #0:0: Audio: pcm_s16le ([1][0][0][0] / 0x0001), 44100 Hz, mono, s16, 705 kb/s
[graph 0 input from stream 0:0 @ 0x9ff1900] tb:1/44100 samplefmt:s16 samplerate:44100 chlayout:0x4
Output #0, mp3, to '/var/www/pyl5/www/output/images/444e89b7ff1d1d4529c83977ded6648c/chinchilla.wav.mp3':
  Metadata:
    TSSE            : Lavf54.14.100
    Stream #0:0: Audio: mp3, 44100 Hz, mono, s16, 128 kb/s
Stream mapping:
  Stream #0:0 -> #0:0 (pcm_s16le -> libmp3lame)
Press [q] to stop, [?] for help
size=      11kB time=00:00:00.62 bitrate= 138.9kbits/s    size=      21kB time=00:00:01.28 bitrate= 133.3kbits/s    size=      29kB time=00:00:01.77 bitrate= 131.8kbits/s    size=      29kB time=00:00:01.82 bitrate= 131.7kbits/s    size=      42kB time=00:00:02.66 bitrate= 130.6kbits/s    size=      58kB time=00:00:03.68 bitrate= 129.9kbits/s    size=      76kB time=00:00:04.80 bitrate= 129.4kbits/s    size=      91kB time=00:00:05.77 bitrate= 129.2kbits/s    size=     116kB time=00:00:07.36 bitrate= 128.9kbits/s    
video:0kB audio:116kB subtitle:0 global headers:0kB muxing overhead 0.382138%
 Squirrel
el objeto que da es Squirrel
es fondo o voz
es el por defecto
el sonido por defecto del actor es SquirrelDefault
hola
you can do it
you can do it
you can do it
temporal string = /var/www/pyl5/www/output/images/444e89b7ff1d1d4529c83977ded6648c/
copiando /var/www/pyl5/ImageProcessing/SoundFilm/squirrel.wav en /var/www/pyl5/www/output/images/444e89b7ff1d1d4529c83977ded6648c/tmp_1.wav
copiando /var/www/pyl5/ImageProcessing/SoundFilm/squirrel.wav en /var/www/pyl5/www/output/images/444e89b7ff1d1d4529c83977ded6648c/tmp_2.wav
copiando /var/www/pyl5/ImageProcessing/SoundFilm/squirrel.wav en /var/www/pyl5/www/output/images/444e89b7ff1d1d4529c83977ded6648c/tmp_3.wav
copiando /var/www/pyl5/ImageProcessing/SoundFilm/squirrel.wav en /var/www/pyl5/www/output/images/444e89b7ff1d1d4529c83977ded6648c/tmp_4.wav
copiando /var/www/pyl5/ImageProcessing/SoundFilm/squirrel.wav en /var/www/pyl5/www/output/images/444e89b7ff1d1d4529c83977ded6648c/tmp_5.wav
tu
el actor es ::Squirrel::
la animacion del actor es ::-default-::
la de la acciones ::CLAP::
el actor es ::Squirrel::
la animacion del actor es ::-default-::
la de la acciones ::FLAP::
el actor que da es Bird
el actor que da es Rabbit
el actor que da es Bird
el actor que da es Bird
el actor que da es FlyingSquirrel
el actor que da es Chinchilla
el actor que da es Butterfly
el actor que da es Rabbit
el actor que da es Squirrel
el objeto que da es Squirrel
es fondo o voz
es el por defecto
el sonido por defecto del actor es SquirrelDefault
hola
you can do it
you can do it
you can do it
temporal string = /var/www/pyl5/www/output/images/444e89b7ff1d1d4529c83977ded6648c/
copiando /var/www/pyl5/ImageProcessing/SoundFilm/squirrel.wav en /var/www/pyl5/www/output/images/444e89b7ff1d1d4529c83977ded6648c/tmp_1.wav
copiando /var/www/pyl5/ImageProcessing/SoundFilm/squirrel.wav en /var/www/pyl5/www/output/images/444e89b7ff1d1d4529c83977ded6648c/tmp_2.wav
copiando /var/www/pyl5/ImageProcessing/SoundFilm/squirrel.wav en /var/www/pyl5/www/output/images/444e89b7ff1d1d4529c83977ded6648c/tmp_3.wav
copiando /var/www/pyl5/ImageProcessing/SoundFilm/squirrel.wav en /var/www/pyl5/www/output/images/444e89b7ff1d1d4529c83977ded6648c/tmp_4.wav
copiando /var/www/pyl5/ImageProcessing/SoundFilm/squirrel.wav en /var/www/pyl5/www/output/images/444e89b7ff1d1d4529c83977ded6648c/tmp_5.wav
tu
el actor es ::Squirrel::
la animacion del actor es ::-default-::
la de la acciones ::CLAP::
el actor es ::Squirrel::
la animacion del actor es ::-default-::
la de la acciones ::FLAP::
el actor que da es Rabbit
el objeto que da es Chinchilla
el objeto que da es Chinchilla
listo para los actores
el actor que da es Chinchilla
el objeto que da es Chinchilla
es fondo o voz
es el por defecto
el sonido por defecto del actor es ChinchillaDefault
hola
you can do it
you can do it
you can do it
temporal string = /var/www/pyl5/www/output/images/444e89b7ff1d1d4529c83977ded6648c/
copiando /var/www/pyl5/ImageProcessing/SoundFilm/chinchilla.wav en /var/www/pyl5/www/output/images/444e89b7ff1d1d4529c83977ded6648c/tmp_1.wav
copiando /var/www/pyl5/ImageProcessing/SoundFilm/chinchilla.wav en /var/www/pyl5/www/output/images/444e89b7ff1d1d4529c83977ded6648c/tmp_2.wav
copiando /var/www/pyl5/ImageProcessing/SoundFilm/chinchilla.wav en /var/www/pyl5/www/output/images/444e89b7ff1d1d4529c83977ded6648c/tmp_3.wav
copiando /var/www/pyl5/ImageProcessing/SoundFilm/chinchilla.wav en /var/www/pyl5/www/output/images/444e89b7ff1d1d4529c83977ded6648c/tmp_4.wav
copiando /var/www/pyl5/ImageProcessing/SoundFilm/chinchilla.wav en /var/www/pyl5/www/output/images/444e89b7ff1d1d4529c83977ded6648c/tmp_5.wav
tu
el actor es ::Chinchilla::
la animacion del actor es ::-default-::
la de la acciones ::EAT::
el actor es ::Chinchilla::
la animacion del actor es ::-default-::
la de la acciones ::RUN::
el actor que da es Apple
el actor que da es Squirrel
el actor que da es Bird
el actor que da es Rabbit
el actor que da es Bird
el actor que da es Bird
el actor que da es FlyingSquirrel
el actor que da es Chinchilla
el objeto que da es Chinchilla
es fondo o voz
es el por defecto
el sonido poffmpeg version N-42091-gf7cba73 Copyright (c) 2000-2012 the FFmpeg developers
  built on Jul  1 2012 05:10:32 with gcc 4.6.3
  configuration: --prefix=/root/ffmpeg-static/32bit --arch=x86_32 --extra-cflags='-m32 -I/root/ffmpeg-static/32bit/include -static' --extra-ldflags='-m32 -L/root/ffmpeg-static/32bit/lib -static' --extra-libs='-lxml2 -lexpat -lfreetype' --enable-static --disable-shared --disable-ffserver --disable-doc --enable-bzlib --enable-zlib --enable-postproc --enable-runtime-cpudetect --enable-libx264 --enable-gpl --enable-libtheora --enable-libvorbis --enable-libmp3lame --enable-gray --enable-libass --enable-libfreetype --enable-libopenjpeg --enable-libspeex --enable-libvo-aacenc --enable-libvo-amrwbenc --enable-version3 --enable-libvpx
  libavutil      51. 63.100 / 51. 63.100
  libavcodec     54. 31.100 / 54. 31.100
  libavformat    54. 14.100 / 54. 14.100
  libavdevice    54.  0.100 / 54.  0.100
  libavfilter     3.  0.100 /  3.  0.100
  libswscale      2.  1.100 /  2.  1.100
  libswresample   0. 15.100 /  0. 15.100
  libpostproc    52.  0.100 / 52.  0.100
[wav @ 0x9c4d660] max_analyze_duration 5000000 reached at 5015510
Guessed Channel Layout for  Input Stream #0.0 : mono
Input #0, wav, from '/var/www/pyl5/www/output/images/444e89b7ff1d1d4529c83977ded6648c/tmpgarage.wav':
  Duration: 00:00:07.35, bitrate: 705 kb/s
    Stream #0:0: Audio: pcm_s16le ([1][0][0][0] / 0x0001), 44100 Hz, mono, s16, 705 kb/s
[graph 0 input from stream 0:0 @ 0x9c53900] tb:1/44100 samplefmt:s16 samplerate:44100 chlayout:0x4
Output #0, mp3, to '/var/www/pyl5/www/output/images/444e89b7ff1d1d4529c83977ded6648c/chinchilla.wav.mp3':
  Metadata:
    TSSE            : Lavf54.14.100
    Stream #0:0: Audio: mp3, 44100 Hz, mono, s16, 128 kb/s
Stream mapping:
  Stream #0:0 -> #0:0 (pcm_s16le -> libmp3lame)
Press [q] to stop, [?] for help
size=      31kB time=00:00:01.93 bitrate= 131.5kbits/s    size=      56kB time=00:00:03.55 bitrate= 129.9kbits/s    size=      99kB time=00:00:06.29 bitrate= 129.1kbits/s    size=     109kB time=00:00:06.89 bitrate= 129.0kbits/s    size=     116kB time=00:00:07.36 bitrate= 128.9kbits/s    
video:0kB audio:116kB subtitle:0 global headers:0kB muxing overhead 0.382138%
ffmpeg version N-42091-gf7cba73 Copyright (c) 2000-2012 the FFmpeg developers
  built on Jul  1 2012 05:10:32 with gcc 4.6.3
  configuration: --prefix=/root/ffmpeg-static/32bit --arch=x86_32 --extra-cflags='-m32 -I/root/ffmpeg-static/32bit/include -static' --extra-ldflags='-m32 -L/root/ffmpeg-static/32bit/lib -static' --extra-libs='-lxml2 -lexpat -lfreetype' --enable-static --disable-shared --disable-ffserver --disable-doc --enable-bzlib --enable-zlib --enable-postproc --enable-runtime-cpudetect --enable-libx264 --enable-gpl --enable-libtheora --enable-libvorbis --enable-libmp3lame --enable-gray --enable-libass --enable-libfreetype --enable-libopenjpeg --enable-libspeex --enable-libvo-aacenc --enable-libvo-amrwbenc --enable-version3 --enable-libvpx
  libavutil      51. 63.100 / 51. 63.100
  libavcodec     54. 31.100 / 54. 31.100
  libavformat    54. 14.100 / 54. 14.100
  libavdevice    54.  0.100 / 54.  0.100
  libavfilter     3.  0.100 /  3.  0.100
  libswscale      2.  1.100 /  2.  1.100
  libswresample   0. 15.100 /  0. 15.100
  libpostproc    52.  0.100 / 52.  0.100
[wav @ 0xb39b660] max_analyze_duration 5000000 reached at 5015510
Guessed Channel Layout for  Input Stream #0.0 : mono
Input #0, wav, from '/var/www/pyl5/www/output/images/444e89b7ff1d1d4529c83977ded6648c/tmpgarage.wav':
  Duration: 00:00:13.07, bitrate: 705 kb/s
    Stream #0:0: Audio: pcm_s16le ([1][0][0][0] / 0x0001), 44100 Hz, mono, s16, 705 kb/s
[graph 0 input from stream 0:0 @ 0xb3a1900] tb:1/44100 samplefmt:s16 samplerate:44100 chlayout:0x4
Output #0, mp3, to '/var/www/pyl5/www/output/images/444e89b7ff1d1d4529c83977ded6648c/bird001.wav.mp3':
  Metadata:
    TSSE            : Lavf54.14.100
    Stream #0:0: Audio: mp3, 44100 Hz, mono, s16, 128 kb/s
Stream mapping:
  Stream #0:0 -> #0:0 (pcm_s16le -> libmp3lame)
Press [q] to stop, [?] for help
size=      39kB time=00:00:02.43 bitrate= 130.8kbits/s    size=      55kB time=00:00:03.44 bitrate= 130.0kbits/s    size=      78kB time=00:00:04.91 bitrate= 129.4kbits/s    size=     127kB time=00:00:08.04 bitrate= 128.8kbits/s    size=     185kB time=00:00:11.78 bitrate= 128.6kbits/s    size=     205kB time=00:00:13.08 bitrate= 128.5kbits/s    
video:0kB audio:205kB subtitle:0 global headers:0kB muxing overhead 0.215428%
ffmpeg version N-42091-gf7cba73 Copyright (c) 2000-2012 the FFmpeg developers
  built on Jul  1 2012 05:10:32 with gcc 4.6.3
  configuration: --prefix=/root/ffmpeg-static/32bit --arch=x86_32 --extra-cflags='-m32 -I/root/ffmpeg-static/32bit/include -static' --extra-ldflags='-m32 -L/root/ffmpeg-static/32bit/lib -static' --extra-libs='-lxml2 -lexpat -lfreetype' --enable-static --disable-shared --disable-ffserver --disable-doc --enable-bzlib --enable-zlib --enable-postproc --enable-runtime-cpudetect --enable-libx264 --enable-gpl --enable-libtheora --enable-libvorbis --enable-libmp3lame --enable-gray --enable-libass --enable-libfreetype --enable-libopenjpeg --enable-libspeex --enable-libvo-aacenc --enable-libvo-amrwbenc --enable-version3 --enable-libvpx
  libavutil      51. 63.100 / 51. 63.100
  libavcodec     54. 31.100 / 54. 31.100
  libavformat    54. 14.100 / 54. 14.100
  libavdevice    54.  0.100 / 54.  0.100
  libavfilter     3.  0.100 /  3.  0.100
  libswscale      2.  1.100 /  2.  1.100
  libswresample   0. 15.100 /  0. 15.100
  libpostproc    52.  0.100 / 52.  0.100
[wav @ 0x97e4660] max_analyze_duration 5000000 reached at 5015510
Guessed Channel Layout for  Input Stream #0.0 : mono
Input #0, wav, from '/var/www/pyl5/www/output/images/444e89b7ff1d1d4529c83977ded6648c/tmpgarage.wav':
  Duration: 00:00:13.07, bitrate: 705 kb/s
    Stream #0:0: Audio: pcm_s16le ([1][0][0][0] / 0x0001), 44100 Hz, mono, s16, 705 kb/s
[graph 0 input from stream 0:0 @ 0x97ea900] tb:1/44100 samplefmt:s16 samplerate:44100 chlayout:0x4
Output #0, mp3, to '/var/www/pyl5/www/output/images/444e89b7ff1d1d4529c83977ded6648c/bird001.wav.mp3':
  Metadata:
    TSSE            : Lavf54.14.100
    Stream #0:0: Audio: mp3, 44100 Hz, mono, s16, 128 kb/s
Stream mapping:
  Stream #0:0 -> #0:0 (pcm_s16le -> libmp3lame)
Press [q] to stop, [?] for help
size=      17kB time=00:00:01.04 bitrate= 134.5kbits/s    size=      18kB time=00:00:01.09 bitrate= 134.2kbits/s    size=      19kB time=00:00:01.15 bitrate= 133.9kbits/s    size=      33kB time=00:00:02.06 bitrate= 131.3kbits/s    size=      45kB time=00:00:02.82 bitrate= 130.4kbits/s    size=      56kB time=00:00:03.55 bitrate= 129.9kbits/s    size=      70kB time=00:00:04.44 bitrate= 129.5kbits/s    size=      97kB time=00:00:06.16 bitrate= 129.1kbits/s    size=      99kB time=00:00:06.29 bitrate= 129.1kbits/s    size=     114kB time=00:00:07.21 bitrate= 128.9kbits/s    size=     133kB time=00:00:08.46 bitrate= 128.8kbits/s    size=     177kB time=00:00:11.25 bitrate= 128.6kbits/s    size=     202kB time=00:00:12.87 bitrate= 128.5kbits/s    size=     205kB time=00:00:13.08 bitrate= 128.5kbits/s    
video:0kB audio:205kB subtitle:0 global headers:0kB muxing overhead 0.215428%
r defecto del actor es ChinchillaDefault
hola
you can do it
you can do it
you can do it
temporal string = /var/www/pyl5/www/output/images/444e89b7ff1d1d4529c83977ded6648c/
copiando /var/www/pyl5/ImageProcessing/SoundFilm/chinchilla.wav en /var/www/pyl5/www/output/images/444e89b7ff1d1d4529c83977ded6648c/tmp_1.wav
copiando /var/www/pyl5/ImageProcessing/SoundFilm/chinchilla.wav en /var/www/pyl5/www/output/images/444e89b7ff1d1d4529c83977ded6648c/tmp_2.wav
copiando /var/www/pyl5/ImageProcessing/SoundFilm/chinchilla.wav en /var/www/pyl5/www/output/images/444e89b7ff1d1d4529c83977ded6648c/tmp_3.wav
copiando /var/www/pyl5/ImageProcessing/SoundFilm/chinchilla.wav en /var/www/pyl5/www/output/images/444e89b7ff1d1d4529c83977ded6648c/tmp_4.wav
copiando /var/www/pyl5/ImageProcessing/SoundFilm/chinchilla.wav en /var/www/pyl5/www/output/images/444e89b7ff1d1d4529c83977ded6648c/tmp_5.wav
tu
el actor es ::Chinchilla::
la animacion del actor es ::-default-::
la de la acciones ::EAT::
el actor es ::Chinchilla::
la animacion del actor es ::-default-::
la de la acciones ::RUN::
el actor que da es Butterfly
el actor que da es Rabbit
el actor que da es Squirrel
el actor que da es Rabbit
el objeto que da es Butterfly
el objeto que da es Butterfly
listo para los actores
el actor que da es Chinchilla
el actor que da es Apple
el actor que da es Squirrel
el actor que da es Bird
el actor que da es Rabbit
el actor que da es Bird
el actor que da es Bird
el actor que da es FlyingSquirrel
el actor que da es Chinchilla
el actor que da es Butterfly
el objeto que da es Butterfly
el actor que da es Rabbit
el actor que da es Squirrel
el actor que da es Rabbit
el objeto que da es Bird
el objeto que da es Bird
listo para los actores
el actor que da es Chinchilla
el actor que da es Apple
el actor que da es Squirrel
el actor que da es Bird
el objeto que da es Bird
es fondo o voz
es el por defecto
el sonido por defecto del actor es BirdDefault
hola
you can do it
you can do it
you can do it
temporal string = /var/www/pyl5/www/output/images/444e89b7ff1d1d4529c83977ded6648c/
copiando /var/www/pyl5/ImageProcessing/SoundFilm/bird001.wav en /var/www/pyl5/www/output/images/444e89b7ff1d1d4529c83977ded6648c/tmp_1.wav
copiando /var/www/pyl5/ImageProcessing/SoundFilm/bird001.wav en /var/www/pyl5/www/output/images/444e89b7ff1d1d4529c83977ded6648c/tmp_2.wav
copiando /var/www/pyl5/ImageProcessing/SoundFilm/bird001.wav en /var/www/pyl5/www/output/images/444e89b7ff1d1d4529c83977ded6648c/tmp_3.wav
copiando /var/www/pyl5/ImageProcessing/SoundFilm/bird001.wav en /var/www/pyl5/www/output/images/444e89b7ff1d1d4529c83977ded6648c/tmp_4.wav
copiando /var/www/pyl5/ImageProcessing/SoundFilm/bird001.wav en /var/www/pyl5/www/output/images/444e89b7ff1d1d4529c83977ded6648c/tmp_5.wav
tu
el actor es ::Bird::
la animacion del actor es ::-default-::
la de la acciones ::FLAP::
el actor que da es Rabbit
el actor que da es Bird
el objeto que da es Bird
es fondo o voz
es el por defecto
el sonido por defecto del actor es BirdDefault
hola
you can do it
you can do it
you can do it
temporal string = /var/www/pyl5/www/output/images/444e89b7ff1d1d4529c83977ded6648c/
copiando /var/www/pyl5/ImageProcessing/SoundFilm/bird001.wav en /var/www/pyl5/www/output/images/444e89b7ff1d1d4529c83977ded6648c/tmp_1.wav
copiando /var/www/pyl5/ImageProcessing/SoundFilm/bird001.wav en /var/www/pyl5/www/output/images/444e89b7ff1d1d4529c83977ded6648c/tmp_2.wav
copiando /var/www/pyl5/ImageProcessing/SoundFilm/bird001.wav en /var/www/pyl5/www/output/images/444e89b7ff1d1d4529c83977ded6648c/tmp_3.wav
copiando /var/www/pyl5/ImageProcessing/SoundFilm/bird001.wav en /var/www/pyl5/www/output/images/444e89b7ff1d1d4529c83977ded6648c/tmp_4.wav
copiando /var/www/pyl5/ImageProcessing/SoundFilm/bird001.wav en /var/www/pyl5/www/output/images/444e89b7ff1d1d4529c83977ded6648c/tmp_5.wav
tu
el actor es ::Bird::
la animacion del actor es ::-default-::
la de la acciones ::FLAP::
el actor que da es Bird
el objeto que da es Bird
es fondo o voz
es el por defecto
el sonido por defecto del actor es BirdDefault
hola
you can do it
you can do it
you can do itffmpeg version N-42091-gf7cba73 Copyright (c) 2000-2012 the FFmpeg developers
  built on Jul  1 2012 05:10:32 with gcc 4.6.3
  configuration: --prefix=/root/ffmpeg-static/32bit --arch=x86_32 --extra-cflags='-m32 -I/root/ffmpeg-static/32bit/include -static' --extra-ldflags='-m32 -L/root/ffmpeg-static/32bit/lib -static' --extra-libs='-lxml2 -lexpat -lfreetype' --enable-static --disable-shared --disable-ffserver --disable-doc --enable-bzlib --enable-zlib --enable-postproc --enable-runtime-cpudetect --enable-libx264 --enable-gpl --enable-libtheora --enable-libvorbis --enable-libmp3lame --enable-gray --enable-libass --enable-libfreetype --enable-libopenjpeg --enable-libspeex --enable-libvo-aacenc --enable-libvo-amrwbenc --enable-version3 --enable-libvpx
  libavutil      51. 63.100 / 51. 63.100
  libavcodec     54. 31.100 / 54. 31.100
  libavformat    54. 14.100 / 54. 14.100
  libavdevice    54.  0.100 / 54.  0.100
  libavfilter     3.  0.100 /  3.  0.100
  libswscale      2.  1.100 /  2.  1.100
  libswresample   0. 15.100 /  0. 15.100
  libpostproc    52.  0.100 / 52.  0.100
[wav @ 0xb166660] max_analyze_duration 5000000 reached at 5015510
Guessed Channel Layout for  Input Stream #0.0 : mono
Input #0, wav, from '/var/www/pyl5/www/output/images/444e89b7ff1d1d4529c83977ded6648c/tmpgarage.wav':
  Duration: 00:00:13.07, bitrate: 705 kb/s
    Stream #0:0: Audio: pcm_s16le ([1][0][0][0] / 0x0001), 44100 Hz, mono, s16, 705 kb/s
[graph 0 input from stream 0:0 @ 0xb16c900] tb:1/44100 samplefmt:s16 samplerate:44100 chlayout:0x4
Output #0, mp3, to '/var/www/pyl5/www/output/images/444e89b7ff1d1d4529c83977ded6648c/bird001.wav.mp3':
  Metadata:
    TSSE            : Lavf54.14.100
    Stream #0:0: Audio: mp3, 44100 Hz, mono, s16, 128 kb/s
Stream mapping:
  Stream #0:0 -> #0:0 (pcm_s16le -> libmp3lame)
Press [q] to stop, [?] for help
size=      14kB time=00:00:00.86 bitrate= 135.9kbits/s    size=      31kB time=00:00:01.93 bitrate= 131.5kbits/s    size=      46kB time=00:00:02.90 bitrate= 130.4kbits/s    size=      69kB time=00:00:04.33 bitrate= 129.6kbits/s    size=      83kB time=00:00:05.27 bitrate= 129.3kbits/s    size=      97kB time=00:00:06.16 bitrate= 129.1kbits/s    size=     122kB time=00:00:07.78 bitrate= 128.9kbits/s    size=     171kB time=00:00:10.89 bitrate= 128.6kbits/s    size=     189kB time=00:00:12.04 bitrate= 128.6kbits/s    size=     202kB time=00:00:12.87 bitrate= 128.5kbits/s    size=     205kB time=00:00:13.08 bitrate= 128.5kbits/s    
video:0kB audio:205kB subtitle:0 global headers:0kB muxing overhead 0.215428%
ffmpeg version N-42091-gf7cba73 Copyright (c) 2000-2012 the FFmpeg developers
  built on Jul  1 2012 05:10:32 with gcc 4.6.3
  configuration: --prefix=/root/ffmpeg-static/32bit --arch=x86_32 --extra-cflags='-m32 -I/root/ffmpeg-static/32bit/include -static' --extra-ldflags='-m32 -L/root/ffmpeg-static/32bit/lib -static' --extra-libs='-lxml2 -lexpat -lfreetype' --enable-static --disable-shared --disable-ffserver --disable-doc --enable-bzlib --enable-zlib --enable-postproc --enable-runtime-cpudetect --enable-libx264 --enable-gpl --enable-libtheora --enable-libvorbis --enable-libmp3lame --enable-gray --enable-libass --enable-libfreetype --enable-libopenjpeg --enable-libspeex --enable-libvo-aacenc --enable-libvo-amrwbenc --enable-version3 --enable-libvpx
  libavutil      51. 63.100 / 51. 63.100
  libavcodec     54. 31.100 / 54. 31.100
  libavformat    54. 14.100 / 54. 14.100
  libavdevice    54.  0.100 / 54.  0.100
  libavfilter     3.  0.100 /  3.  0.100
  libswscale      2.  1.100 /  2.  1.100
  libswresample   0. 15.100 /  0. 15.100
  libpostproc    52.  0.100 / 52.  0.100
[wav @ 0xb13b660] max_analyze_duration 5000000 reached at 5015510
Guessed Channel Layout for  Input Stream #0.0 : stereo
Input #0, wav, from '/var/www/pyl5/www/output/images/444e89b7ff1d1d4529c83977ded6648c/tmpgarage.wav':
  Duration: 00:00:05.99, bitrate: 1411 kb/s
    Stream #0:0: Audio: pcm_s16le ([1][0][0][0] / 0x0001), 44100 Hz, stereo, s16, 1411 kb/s
[graph 0 input from stream 0:0 @ 0xb1a3420] tb:1/44100 samplefmt:s16 samplerate:44100 chlayout:0x3
Output #0, mp3, to '/var/www/pyl5/www/output/images/444e89b7ff1d1d4529c83977ded6648c/fsquirrel.wav.mp3':
  Metadata:
    TSSE            : Lavf54.14.100
    Stream #0:0: Audio: mp3, 44100 Hz, stereo, s16, 128 kb/s
Stream mapping:
  Stream #0:0 -> #0:0 (pcm_s16le -> libmp3lame)
Press [q] to stop, [?] for help
size=       9kB time=00:00:00.49 bitrate= 141.7kbits/s    size=      22kB time=00:00:01.33 bitrate= 133.1kbits/s    size=      27kB time=00:00:01.69 bitrate= 132.0kbits/s    size=      32kB time=00:00:01.98 bitrate= 131.4kbits/s    size=      37kB time=00:00:02.32 bitrate= 130.9kbits/s    size=      41kB time=00:00:02.58 bitrate= 130.6kbits/s    size=      53kB time=00:00:03.31 bitrate= 130.1kbits/s    size=      76kB time=00:00:04.83 bitrate= 129.4kbits/s    size=      84kB time=00:00:05.30 bitrate= 129.3kbits/s    size=      89kB time=00:00:05.66 bitrate= 129.2kbits/s    size=      95kB time=00:00:06.00 bitrate= 129.1kbits/s    
video:0kB audio:94kB subtitle:0 global headers:0kB muxing overhead 0.468161%

temporal string = /var/www/pyl5/www/output/images/444e89b7ff1d1d4529c83977ded6648c/
copiando /var/www/pyl5/ImageProcessing/SoundFilm/bird001.wav en /var/www/pyl5/www/output/images/444e89b7ff1d1d4529c83977ded6648c/tmp_1.wav
copiando /var/www/pyl5/ImageProcessing/SoundFilm/bird001.wav en /var/www/pyl5/www/output/images/444e89b7ff1d1d4529c83977ded6648c/tmp_2.wav
copiando /var/www/pyl5/ImageProcessing/SoundFilm/bird001.wav en /var/www/pyl5/www/output/images/444e89b7ff1d1d4529c83977ded6648c/tmp_3.wav
copiando /var/www/pyl5/ImageProcessing/SoundFilm/bird001.wav en /var/www/pyl5/www/output/images/444e89b7ff1d1d4529c83977ded6648c/tmp_4.wav
copiando /var/www/pyl5/ImageProcessing/SoundFilm/bird001.wav en /var/www/pyl5/www/output/images/444e89b7ff1d1d4529c83977ded6648c/tmp_5.wav
tu
el actor es ::Bird::
la animacion del actor es ::-default-::
la de la acciones ::FLAP::
el actor que da es FlyingSquirrel
el actor que da es Chinchilla
el actor que da es Butterfly
el actor que da es Rabbit
el actor que da es Squirrel
el actor que da es Rabbit
el objeto que da es FlyingSquirrel
el objeto que da es FlyingSquirrel
listo para los actores
el actor que da es Chinchilla
el actor que da es Apple
el actor que da es Squirrel
el actor que da es Bird
el actor que da es Rabbit
el actor que da es Bird
el actor que da es Bird
el actor que da es FlyingSquirrel
el objeto que da es FlyingSquirrel
es fondo o voz
es el por defecto
el sonido por defecto del actor es FlyingSquirrelDefault
hola
you can do it
you can do it
you can do it
temporal string = /var/www/pyl5/www/output/images/444e89b7ff1d1d4529c83977ded6648c/
copiando /var/www/pyl5/ImageProcessing/SoundFilm/fsquirrel.wav en /var/www/pyl5/www/output/images/444e89b7ff1d1d4529c83977ded6648c/tmp_1.wav
copiando /var/www/pyl5/ImageProcessing/SoundFilm/fsquirrel.wav en /var/www/pyl5/www/output/images/444e89b7ff1d1d4529c83977ded6648c/tmp_2.wav
copiando /var/www/pyl5/ImageProcessing/SoundFilm/fsquirrel.wav en /var/www/pyl5/www/output/images/444e89b7ff1d1d4529c83977ded6648c/tmp_3.wav
copiando /var/www/pyl5/ImageProcessing/SoundFilm/fsquirrel.wav en /var/www/pyl5/www/output/images/444e89b7ff1d1d4529c83977ded6648c/tmp_4.wav
copiando /var/www/pyl5/ImageProcessing/SoundFilm/fsquirrel.wav en /var/www/pyl5/www/output/images/444e89b7ff1d1d4529c83977ded6648c/tmp_5.wav
tu
el actor es ::FlyingSquirrel::
la animacion del actor es ::-default-::
la de la acciones ::FLAP::
el actor es ::FlyingSquirrel::
la animacion del actor es ::-default-::
la de la acciones ::RUN::
el actor que da es Chinchilla
el actor que da es Butterfly
el actor que da es Rabbit
el actor que da es Squirrel
el actor que da es Rabbit
el objeto que da es Apple
el objeto que da es Apple
listo para los actores
el actor que da es Chinchilla
el actor que da es Apple
el objeto que da es Apple
el actor que da es Squirrel
el actor que da es Bird
el actor que da es Rabbit
el actor que da es Bird
el actor que da es Bird
el actor que da es FlyingSquirrel
el actor que da es Chinchilla
el actor que da es Butterfly
el actor que da es Rabbit
el actor que da es Squirrel
el actor que da es Rabbit
el objeto que da es SBCamera
el objeto que da es SBCamera
listo para los actores
el actor que da es Chinchilla
el actor que da es Apple
el actor que da es Squirrel
el actor que da es Bird
el actor que da es Rabbit
el actor que da es Bird
el actor que da es Bird
el actor que da es FlyingSquirrel
el actor que da es Chinchilla
el actor que da es Butterfly
el actor que da es Rabbit
el actor que da es Squirrel
el actor que da es Rabbit
el objeto que da es SBRectangle
el objeto que da es SBRectangle
listo para los actores
el actor que da es Chinchilla
el actor que da es Apple
el actor que da es Squirrel
el actor que da es Bird
el actor que da es Rabbit
el actor que da es Bird
el actor que da es Bird
el actor que da es FlyingSquirrel
el actor que da es Chinchilla
el actor que da es Butterfly
el actor que da es Rabbit
el actor que da es Squirrel
el actor que da es Rabbit
sayonara, SBI!

Tue Oct 15 13:53:10 COT 2013
